<mxfile host="65bd71144e">
    <diagram name="Sivu-1" id="LWvL00vu0RjGpdRJvm7P">
        <mxGraphModel dx="1216" dy="792" grid="1" gridSize="10" guides="1" tooltips="1" connect="1" arrows="1" fold="1" page="1" pageScale="1" pageWidth="827" pageHeight="1169" background="none" math="0" shadow="0">
            <root>
                <mxCell id="0"/>
                <mxCell id="1" parent="0"/>
                <mxCell id="npweArEeZlepEEl15gsk-9" value="" style="whiteSpace=wrap;html=1;aspect=fixed;" parent="1" vertex="1">
                    <mxGeometry x="160" y="40" width="400" height="400" as="geometry"/>
                </mxCell>
                <mxCell id="JE4PIyuZTSm8pFrgzT4--1" value="Käyttäjä&lt;br&gt;" style="shape=umlActor;verticalLabelPosition=bottom;verticalAlign=top;html=1;outlineConnect=0;" parent="1" vertex="1">
                    <mxGeometry x="90" y="150" width="30" height="60" as="geometry"/>
                </mxCell>
                <object label="Ylläpitäjä&lt;br&gt;" id="JE4PIyuZTSm8pFrgzT4--2">
                    <mxCell style="shape=umlActor;verticalLabelPosition=bottom;verticalAlign=top;html=1;outlineConnect=0;" parent="1" vertex="1">
                        <mxGeometry x="90" y="360" width="30" height="60" as="geometry"/>
                    </mxCell>
                </object>
                <mxCell id="JE4PIyuZTSm8pFrgzT4--18" value="" style="ellipse;whiteSpace=wrap;html=1;" parent="1" vertex="1">
                    <mxGeometry x="250" y="350" width="120" height="80" as="geometry"/>
                </mxCell>
                <mxCell id="JE4PIyuZTSm8pFrgzT4--25" value="" style="ellipse;whiteSpace=wrap;html=1;" parent="1" vertex="1">
                    <mxGeometry x="410" y="350" width="120" height="80" as="geometry"/>
                </mxCell>
                <mxCell id="JE4PIyuZTSm8pFrgzT4--30" value="" style="ellipse;whiteSpace=wrap;html=1;" parent="1" vertex="1">
                    <mxGeometry x="410" y="50" width="120" height="80" as="geometry"/>
                </mxCell>
                <mxCell id="JE4PIyuZTSm8pFrgzT4--31" value="" style="ellipse;whiteSpace=wrap;html=1;" parent="1" vertex="1">
                    <mxGeometry x="414" y="140" width="120" height="80" as="geometry"/>
                </mxCell>
                <mxCell id="JE4PIyuZTSm8pFrgzT4--32" value="" style="ellipse;whiteSpace=wrap;html=1;" parent="1" vertex="1">
                    <mxGeometry x="410" y="230" width="120" height="80" as="geometry"/>
                </mxCell>
                <mxCell id="JE4PIyuZTSm8pFrgzT4--51" value="" style="endArrow=none;html=1;rounded=0;entryX=0.008;entryY=0.425;entryDx=0;entryDy=0;entryPerimeter=0;" parent="1" target="JE4PIyuZTSm8pFrgzT4--30" edge="1">
                    <mxGeometry width="50" height="50" relative="1" as="geometry">
                        <mxPoint x="130" y="160" as="sourcePoint"/>
                        <mxPoint x="390" y="90" as="targetPoint"/>
                    </mxGeometry>
                </mxCell>
                <mxCell id="JE4PIyuZTSm8pFrgzT4--52" value="" style="endArrow=none;html=1;rounded=0;" parent="1" edge="1">
                    <mxGeometry width="50" height="50" relative="1" as="geometry">
                        <mxPoint x="130" y="190" as="sourcePoint"/>
                        <mxPoint x="414" y="180" as="targetPoint"/>
                    </mxGeometry>
                </mxCell>
                <mxCell id="JE4PIyuZTSm8pFrgzT4--53" value="" style="endArrow=none;html=1;rounded=0;entryX=0.05;entryY=0.75;entryDx=0;entryDy=0;entryPerimeter=0;" parent="1" target="JE4PIyuZTSm8pFrgzT4--31" edge="1">
                    <mxGeometry width="50" height="50" relative="1" as="geometry">
                        <mxPoint x="134" y="370" as="sourcePoint"/>
                        <mxPoint x="414" y="200" as="targetPoint"/>
                    </mxGeometry>
                </mxCell>
                <mxCell id="JE4PIyuZTSm8pFrgzT4--55" value="" style="endArrow=none;html=1;rounded=0;" parent="1" edge="1">
                    <mxGeometry width="50" height="50" relative="1" as="geometry">
                        <mxPoint x="134" y="220" as="sourcePoint"/>
                        <mxPoint x="410" y="260" as="targetPoint"/>
                    </mxGeometry>
                </mxCell>
                <mxCell id="JE4PIyuZTSm8pFrgzT4--56" value="" style="endArrow=none;html=1;rounded=0;entryX=0.058;entryY=0.738;entryDx=0;entryDy=0;entryPerimeter=0;" parent="1" target="JE4PIyuZTSm8pFrgzT4--32" edge="1">
                    <mxGeometry width="50" height="50" relative="1" as="geometry">
                        <mxPoint x="140" y="380" as="sourcePoint"/>
                        <mxPoint x="414" y="295" as="targetPoint"/>
                    </mxGeometry>
                </mxCell>
                <mxCell id="JE4PIyuZTSm8pFrgzT4--57" value="" style="endArrow=none;html=1;rounded=0;" parent="1" edge="1">
                    <mxGeometry width="50" height="50" relative="1" as="geometry">
                        <mxPoint x="140" y="390" as="sourcePoint"/>
                        <mxPoint x="250" y="390" as="targetPoint"/>
                    </mxGeometry>
                </mxCell>
                <mxCell id="JE4PIyuZTSm8pFrgzT4--58" value="" style="endArrow=none;dashed=1;html=1;dashPattern=1 3;strokeWidth=2;rounded=0;exitX=1;exitY=0.5;exitDx=0;exitDy=0;" parent="1" source="JE4PIyuZTSm8pFrgzT4--18" target="JE4PIyuZTSm8pFrgzT4--25" edge="1">
                    <mxGeometry width="50" height="50" relative="1" as="geometry">
                        <mxPoint x="370" y="380" as="sourcePoint"/>
                        <mxPoint x="420" y="330" as="targetPoint"/>
                    </mxGeometry>
                </mxCell>
                <mxCell id="5" value="Luo uusia äänestyksiä" style="text;strokeColor=none;align=center;fillColor=none;html=1;verticalAlign=middle;whiteSpace=wrap;rounded=0;" parent="1" vertex="1">
                    <mxGeometry x="280" y="375" width="60" height="30" as="geometry"/>
                </mxCell>
                <mxCell id="6" value="Poistaa äänestyksiä" style="text;strokeColor=none;align=center;fillColor=none;html=1;verticalAlign=middle;whiteSpace=wrap;rounded=0;" parent="1" vertex="1">
                    <mxGeometry x="440" y="375" width="60" height="30" as="geometry"/>
                </mxCell>
                <mxCell id="7" value="Selaa äänestyksiä" style="text;strokeColor=none;align=center;fillColor=none;html=1;verticalAlign=middle;whiteSpace=wrap;rounded=0;" parent="1" vertex="1">
                    <mxGeometry x="440" y="75" width="60" height="30" as="geometry"/>
                </mxCell>
                <mxCell id="8" value="Tarkistaa äänestyksien äänestystilanteen" style="text;strokeColor=none;align=center;fillColor=none;html=1;verticalAlign=middle;whiteSpace=wrap;rounded=0;" parent="1" vertex="1">
                    <mxGeometry x="444" y="160" width="60" height="40" as="geometry"/>
                </mxCell>
                <mxCell id="9" value="Äänestää valitsemaansa äänestystä" style="text;strokeColor=none;align=center;fillColor=none;html=1;verticalAlign=middle;whiteSpace=wrap;rounded=0;" parent="1" vertex="1">
                    <mxGeometry x="440" y="245" width="60" height="50" as="geometry"/>
                </mxCell>
                <mxCell id="npweArEeZlepEEl15gsk-11" value="" style="endArrow=none;html=1;rounded=0;entryX=0.083;entryY=0.75;entryDx=0;entryDy=0;entryPerimeter=0;" parent="1" target="JE4PIyuZTSm8pFrgzT4--30" edge="1">
                    <mxGeometry width="50" height="50" relative="1" as="geometry">
                        <mxPoint x="130" y="350" as="sourcePoint"/>
                        <mxPoint x="410" y="110" as="targetPoint"/>
                    </mxGeometry>
                </mxCell>
                <mxCell id="11" value="Äänestys-sovellus" style="text;strokeColor=none;align=center;fillColor=none;html=1;verticalAlign=middle;whiteSpace=wrap;rounded=0;" vertex="1" parent="1">
                    <mxGeometry x="160" y="40" width="60" height="30" as="geometry"/>
                </mxCell>
            </root>
        </mxGraphModel>
    </diagram>
</mxfile>